<svg width="184.94mm" height="211.64mm" version="1.1" viewBox="0 0 184.94 211.64" xmlns="http://www.w3.org/2000/svg">
 <g transform="translate(190.52 58.881)">
  <path d="m-148.42 152.49c-4.5461-1.0673-8.8421-5.3781-10.122-10.157-.27794-1.0379-.35494-4.8915-.35741-17.885l-.003-16.563 4.6964 1.1433c2.583.62879 6.899 1.5447 9.5911 2.0353l4.8948.89201.0691 10.757.0691 10.757h83.073v-21.314l5.4901-.99005c3.0196-.54453 7.3653-1.4461 9.6573-2.0035l4.1672-1.0134-.003 16.431c-.002 12.884-.0796 16.716-.35741 17.754-1.2972 4.844-5.5724 9.0922-10.23 10.165-1.5164.34941-99.146.34101-100.64-.009zm25.486-22.271c-4.6538-1.5865-8.1034-5.0926-9.5193-9.6753-.69097-2.2363-.75262-7.1092-.0932-7.3623.37379-.14344 5.6731.28883 7.1183.58064.4839.0977.53284.31239.52916 2.3212-.004 2.0048.0715 2.3364.79741 3.5163 3.4173 5.5547 11.707 3.5776 12.229-2.9165l.13919-1.7339h7.865l-.007 2.0505c-.0197 5.9056-4.3105 11.462-10.274 13.305-2.4286.7504-6.4474.71124-8.7848-.0856zm40.481 0c-5.9817-2.0392-10.039-7.4198-10.039-13.313v-1.9565h7.865l.13919 1.7339c.52128 6.494 8.8114 8.4711 12.229 2.9165.72506-1.1786.80108-1.5127.79751-3.5057-.003-1.7971.0702-2.203.39849-2.203.22135 0 1.9308-.17878 3.7988-.3973 1.868-.21851 3.5044-.33055 3.6364-.24896.132.0816.23692 1.4212.23317 2.977-.005 2.2212-.13386 3.2012-.59835 4.5638-1.5865 4.6538-5.0926 8.1034-9.6753 9.5193-2.4286.7504-6.4474.71124-8.7848-.0856zm-31.602-21.641c-29.717-1.6618-55.21-7.7601-68.066-16.283-3.2148-2.1312-6.3136-5.2974-7.4785-7.6412-.87489-1.7603-.92049-1.9897-.92049-4.6302 0-2.6405.0456-2.8699.92049-4.6302 1.1649-2.3438 4.2637-5.51 7.4785-7.6412 4.5677-3.028 11.81-6.2042 19.341-8.4823 4.0782-1.2336 10.521-2.8537 10.688-2.6873.0716.07159-.24558 1.0328-.70484 2.1359l-1.3598 3.2668c-.64674 2.1586.72876 5.7051 3.2637 8.4151 6.3373 6.7746 22.182 11.819 41.865 13.33 4.769.36591 17.191.36591 21.96 0 18.856-1.4467 33.975-6.0535 41.03-12.502 2.344-2.1423 3.7156-4.5427 4.2243-7.3932-.32539-1.7427-.82562-3.5135-1.4854-5.1165-.45926-1.1032-.77643-2.0643-.70484-2.1359.16637-.16638 6.6095 1.4537 10.688 2.6873 7.5309 2.278 14.773 5.4543 19.341 8.4823 3.2148 2.1312 6.3136 5.2974 7.4785 7.6412.87489 1.7603.92049 1.9897.92049 4.6302 0 2.6405-.0456 2.8699-.92049 4.6302-1.1649 2.3438-4.2637 5.51-7.4785 7.6412-13.007 8.6225-38.38 14.64-68.727 16.3-5.5727.3048-25.791.29349-31.353-.0175zm-.0432-36.374c-15.352-1.0456-26.75-3.3479-31.492-6.3611-1.502-.95459-1.9351-1.5467-1.9351-2.6462 0-.53762 31.264-78.006 47.959-118.84l1.3252-3.2411 2.147-.0017c1.1809-.000962 3.04.11834 4.1314.26512s4.3656.50753 7.276.80166c2.9104.29414 6.6014.77397 8.2021 1.0663 14.422 2.6337 20.597 4.2753 30.692 8.1597 4.3253 1.6643 12.826 5.9097 12.831 6.4082.00079.08952-2.1712.10768-4.827.04035-7.8292-.19848-20.61.60436-28.112 1.7659-7.2139 1.1169-13.107 2.7963-17.441 4.9697-2.2128 1.1098-3.8578 2.1746-3.8578 2.4971 0 .18332 28.656 70.956 37.056 91.518 2.1059 5.155 2.0794 5.6838-.3617 7.2352-4.8515 3.0832-16.105 5.3195-32.075 6.3737-7.3997.48849-24.259.48175-31.517-.01259z" fill="#fefefe"/>
 </g>
</svg>
